<?xml version="1.0" standalone="no"?>
<!DOCTYPE svg PUBLIC "-//W3C//DTD SVG 20010904//EN"
 "http://www.w3.org/TR/2001/REC-SVG-20010904/DTD/svg10.dtd">
<svg version="1.0" xmlns="http://www.w3.org/2000/svg"
 width="2375.000000pt" height="1272.000000pt" viewBox="0 0 2375.000000 1272.000000"
 preserveAspectRatio="xMidYMid meet">
<metadata>
Created by potrace 1.15, written by Peter Selinger 2001-2017
</metadata>
<g transform="translate(0.000000,1272.000000) scale(0.100000,-0.100000)"
fill="#000000" stroke="none">
<path d="M13125 12700 c-145 -38 -178 -62 -288 -209 -476 -633 -1655 -3025
-2632 -5341 -260 -616 -520 -1262 -669 -1660 -58 -156 -61 -160 -80 -140 -12
13 -16 119 -25 686 -20 1250 -7 4384 19 4689 10 123 29 187 111 370 51 113 54
124 52 193 -11 362 -358 802 -633 802 -151 0 -265 -94 -325 -267 -36 -104 -45
-294 -45 -998 0 -787 18 -1646 70 -3290 40 -1273 114 -2913 165 -3664 9 -123
14 -225 12 -227 -12 -12 -142 479 -202 758 -245 1150 -389 2655 -402 4203 -8
888 16 1375 88 1840 35 225 121 485 166 502 26 10 6 214 -33 338 -23 72 -76
164 -128 221 -85 96 -187 131 -387 136 -121 3 -127 2 -166 -24 -191 -126 -323
-718 -363 -1633 l-12 -260 -70 -185 c-329 -873 -782 -1908 -1198 -2741 l-153
-307 -51 30 c-172 102 -480 239 -714 317 -266 90 -485 137 -772 166 -223 23
-674 16 -897 -14 -439 -60 -644 -125 -762 -243 -77 -76 -106 -144 -106 -243 0
-104 33 -175 120 -261 71 -70 144 -109 233 -126 88 -16 140 -3 327 85 376 176
706 257 1048 257 352 0 659 -76 1022 -255 218 -107 265 -147 265 -224 0 -37
-21 -79 -218 -426 -775 -1370 -1467 -2280 -2102 -2765 -313 -238 -568 -320
-911 -292 -261 22 -434 68 -654 176 -428 210 -792 573 -1010 1006 -152 303
-224 596 -212 868 14 339 172 563 447 638 47 13 103 18 205 18 189 0 265 -15
632 -129 165 -51 293 -75 430 -82 226 -11 358 41 407 159 19 44 21 141 4 189
-50 148 -248 326 -493 444 -196 95 -385 150 -640 187 -132 19 -458 16 -571 -5
-397 -73 -692 -293 -869 -646 -55 -111 -111 -290 -135 -436 -20 -115 -22 -156
-17 -350 5 -239 15 -314 72 -533 95 -361 272 -713 511 -1012 87 -109 305 -327
414 -414 186 -148 454 -312 659 -402 436 -192 1051 -282 1391 -205 538 122
1158 614 1820 1439 406 508 880 1234 1307 2003 96 172 119 207 132 200 32 -18
419 -420 521 -541 312 -374 703 -956 988 -1472 156 -282 371 -727 494 -1023
83 -201 139 -286 248 -379 97 -83 263 -155 392 -171 66 -8 475 12 531 26 52
14 120 78 146 139 32 75 36 149 12 268 -29 147 -61 475 -61 619 0 177 43 521
96 778 90 429 287 1099 504 1711 82 230 84 234 114 234 21 0 35 -20 97 -132
598 -1096 2075 -2646 3744 -3930 1136 -874 2214 -1482 2976 -1677 194 -50 318
-64 523 -59 160 4 192 8 271 32 127 38 207 78 263 131 122 113 151 331 68 500
-92 186 -271 325 -417 325 -62 0 -79 -9 -150 -75 -101 -96 -221 -142 -399
-151 -232 -13 -533 58 -884 208 -722 308 -1552 855 -2485 1636 -765 640 -1545
1402 -2110 2061 -600 701 -1032 1349 -1171 1760 -49 145 -45 177 64 436 757
1799 1721 3596 2374 4425 103 130 128 159 251 283 126 129 221 195 329 231
161 54 238 151 249 316 18 257 -165 507 -426 584 -76 22 -245 20 -336 -4z
m-5660 -4690 c3 -5 15 -121 25 -257 82 -1045 253 -2206 444 -3023 34 -144 34
-170 2 -170 -7 0 -48 53 -92 117 -109 163 -319 441 -453 603 -223 268 -420
471 -685 705 -146 129 -145 142 25 491 225 462 399 838 574 1239 125 288 133
305 144 305 5 0 13 -4 16 -10z"/>
<path d="M14549 10727 c-74 -40 -83 -69 -118 -397 -59 -544 -94 -1022 -111
-1527 -6 -169 -14 -327 -16 -350 -5 -42 -6 -43 -42 -43 -20 0 -330 11 -688 26
-641 26 -653 26 -690 8 -53 -27 -76 -74 -72 -149 4 -72 33 -120 85 -141 25
-11 194 -21 686 -40 358 -14 666 -27 682 -30 l30 -4 0 -872 c1 -871 7 -1086
41 -1485 50 -585 162 -1163 311 -1603 68 -201 173 -343 296 -401 256 -119 498
-11 922 416 l161 161 84 -59 c230 -159 484 -251 761 -277 508 -47 986 162
1500 658 66 63 121 113 123 111 1 -2 23 -35 48 -74 343 -536 1026 -810 1644
-660 317 77 631 259 937 544 l99 92 65 -88 c94 -125 289 -316 400 -390 224
-149 403 -205 663 -206 267 -2 515 63 825 213 253 123 417 267 506 442 56 112
72 194 66 357 -3 125 -8 157 -30 220 -81 227 -243 387 -467 461 -77 25 -251
56 -370 65 -362 28 -528 54 -657 105 -281 112 -475 390 -434 623 33 189 179
334 413 411 239 78 463 106 895 115 l331 6 28 25 c81 75 66 223 -27 270 -35
18 -59 20 -262 20 -326 0 -570 -22 -847 -75 -466 -91 -727 -275 -837 -590 -25
-73 -27 -92 -27 -220 0 -132 2 -146 33 -235 54 -160 122 -266 253 -398 80 -81
213 -179 307 -227 79 -39 219 -84 345 -110 93 -20 174 -28 351 -36 358 -15
459 -43 564 -154 163 -172 157 -425 -13 -604 -186 -194 -553 -348 -876 -367
-329 -20 -621 142 -888 494 -35 45 -73 89 -86 97 -17 11 -22 22 -18 41 12 65
-62 166 -132 179 -72 14 -92 1 -266 -169 -312 -306 -555 -472 -824 -561 -163
-54 -258 -68 -426 -62 -236 9 -422 71 -630 210 -97 65 -261 231 -328 332 -219
330 -283 742 -175 1115 13 46 26 86 27 87 2 2 77 -35 167 -81 385 -199 739
-318 1052 -357 123 -15 376 -7 477 15 358 78 664 295 791 561 53 110 69 181
69 300 0 84 -5 113 -28 181 -108 310 -477 546 -950 609 -637 84 -1312 -206
-1684 -726 -271 -379 -365 -929 -238 -1397 l20 -73 -148 -147 c-363 -362 -693
-560 -1026 -618 -133 -23 -339 -15 -468 19 -164 43 -343 132 -461 229 l-29 23
46 75 c37 60 46 83 46 121 0 60 -31 107 -90 137 -79 39 -162 21 -207 -46 l-22
-34 -37 58 c-72 112 -129 256 -165 414 -26 111 -36 339 -20 451 13 90 57 269
69 281 5 5 55 -17 113 -48 397 -214 778 -346 1114 -385 123 -15 372 -6 475 16
359 78 667 302 794 577 119 257 72 511 -134 719 -94 95 -164 146 -285 206
-393 198 -902 215 -1355 46 -529 -197 -909 -595 -1055 -1103 -52 -181 -69
-330 -62 -539 12 -364 111 -650 333 -957 14 -21 11 -26 -81 -127 -107 -119
-347 -334 -431 -386 -72 -45 -155 -54 -196 -22 -110 87 -280 698 -367 1325
-26 182 -57 522 -73 801 -13 227 -18 1908 -6 1920 4 4 215 0 470 -9 1052 -36
2298 -59 2368 -44 43 9 85 53 101 108 25 82 -24 179 -100 200 -20 5 -144 10
-276 10 -262 0 -979 14 -1500 30 -658 19 -1050 33 -1054 36 -6 5 17 567 35
869 25 433 56 785 100 1162 23 192 23 215 10 247 -31 75 -138 100 -227 53z
m2821 -3792 c324 -43 583 -190 672 -381 39 -83 37 -160 -6 -248 -54 -110 -212
-254 -353 -322 -126 -61 -246 -86 -413 -87 -235 -2 -429 42 -745 166 -116 45
-506 234 -527 255 -11 11 135 185 208 248 199 170 412 280 658 339 183 45 335
54 506 30z m2807 4 c136 -15 269 -51 378 -103 115 -54 171 -92 240 -163 178
-180 138 -385 -114 -586 -83 -66 -222 -137 -316 -161 -269 -68 -590 -27 -978
126 -122 48 -500 230 -540 260 -18 13 -16 18 40 89 296 371 821 591 1290 538z"/>
</g>
</svg>
