<?xml version="1.0" standalone="no"?>
<!DOCTYPE svg PUBLIC "-//W3C//DTD SVG 20010904//EN"
 "http://www.w3.org/TR/2001/REC-SVG-20010904/DTD/svg10.dtd">
<svg version="1.0" xmlns="http://www.w3.org/2000/svg"
 width="3148.000000pt" height="1272.000000pt" viewBox="0 0 3148.000000 1272.000000"
 preserveAspectRatio="xMidYMid meet">
<metadata>
Created by potrace 1.15, written by Peter Selinger 2001-2017
</metadata>
<g transform="translate(0.000000,1272.000000) scale(0.100000,-0.100000)"
fill="#000000" stroke="none">
<path d="M13125 12700 c-145 -38 -178 -62 -288 -209 -476 -633 -1655 -3025
-2632 -5341 -260 -616 -520 -1262 -669 -1660 -58 -156 -61 -160 -80 -140 -12
13 -16 119 -25 686 -20 1250 -7 4384 19 4689 10 123 29 187 111 370 51 113 54
124 52 193 -11 362 -358 802 -633 802 -151 0 -265 -94 -325 -267 -36 -104 -45
-294 -45 -998 0 -787 18 -1646 70 -3290 40 -1273 114 -2913 165 -3664 9 -123
14 -225 12 -227 -12 -12 -142 479 -202 758 -245 1150 -389 2655 -402 4203 -8
888 16 1375 88 1840 35 225 121 485 166 502 26 10 6 214 -33 338 -23 72 -76
164 -128 221 -85 96 -187 131 -387 136 -121 3 -127 2 -166 -24 -191 -126 -323
-718 -363 -1633 l-12 -260 -70 -185 c-329 -873 -782 -1908 -1198 -2741 l-153
-307 -51 30 c-172 102 -480 239 -714 317 -266 90 -485 137 -772 166 -223 23
-674 16 -897 -14 -439 -60 -644 -125 -762 -243 -77 -76 -106 -144 -106 -243 0
-104 33 -175 120 -261 71 -70 144 -109 233 -126 88 -16 140 -3 327 85 376 176
706 257 1048 257 352 0 659 -76 1022 -255 218 -107 265 -147 265 -224 0 -37
-21 -79 -218 -426 -775 -1370 -1467 -2280 -2102 -2765 -313 -238 -568 -320
-911 -292 -261 22 -434 68 -654 176 -428 210 -792 573 -1010 1006 -152 303
-224 596 -212 868 14 339 172 563 447 638 47 13 103 18 205 18 189 0 265 -15
632 -129 165 -51 293 -75 430 -82 226 -11 358 41 407 159 19 44 21 141 4 189
-50 148 -248 326 -493 444 -196 95 -385 150 -640 187 -132 19 -458 16 -571 -5
-397 -73 -692 -293 -869 -646 -55 -111 -111 -290 -135 -436 -20 -115 -22 -156
-17 -350 5 -239 15 -314 72 -533 95 -361 272 -713 511 -1012 87 -109 305 -327
414 -414 186 -148 454 -312 659 -402 436 -192 1051 -282 1391 -205 538 122
1158 614 1820 1439 406 508 880 1234 1307 2003 96 172 119 207 132 200 32 -18
419 -420 521 -541 312 -374 703 -956 988 -1472 156 -282 371 -727 494 -1023
83 -201 139 -286 248 -379 97 -83 263 -155 392 -171 66 -8 475 12 531 26 52
14 120 78 146 139 32 75 36 149 12 268 -29 147 -61 475 -61 619 0 177 43 521
96 778 90 429 287 1099 504 1711 82 230 84 234 114 234 21 0 35 -20 97 -132
598 -1096 2075 -2646 3744 -3930 1136 -874 2214 -1482 2976 -1677 194 -50 318
-64 523 -59 160 4 192 8 271 32 127 38 207 78 263 131 122 113 151 331 68 500
-92 186 -271 325 -417 325 -62 0 -79 -9 -150 -75 -101 -96 -221 -142 -399
-151 -232 -13 -533 58 -884 208 -722 308 -1552 855 -2485 1636 -765 640 -1545
1402 -2110 2061 -600 701 -1032 1349 -1171 1760 -49 145 -45 177 64 436 757
1799 1721 3596 2374 4425 103 130 128 159 251 283 126 129 221 195 329 231
161 54 238 151 249 316 18 257 -165 507 -426 584 -76 22 -245 20 -336 -4z
m-5660 -4690 c3 -5 15 -121 25 -257 82 -1045 253 -2206 444 -3023 34 -144 34
-170 2 -170 -7 0 -48 53 -92 117 -109 163 -319 441 -453 603 -223 268 -420
471 -685 705 -146 129 -145 142 25 491 225 462 399 838 574 1239 125 288 133
305 144 305 5 0 13 -4 16 -10z"/>
<path d="M14690 11397 c-30 -16 -55 -40 -75 -72 l-30 -48 -3 -1059 -2 -1058
-538 0 -537 0 -52 -24 c-36 -17 -60 -38 -80 -67 l-28 -43 0 -252 0 -252 30
-43 c17 -23 50 -53 74 -66 l44 -23 544 0 543 0 0 -2232 c0 -1465 4 -2245 10
-2269 16 -56 51 -101 100 -129 43 -24 53 -25 252 -28 249 -4 294 4 352 68 20
23 41 52 46 66 6 16 10 869 10 2275 l0 2249 520 0 c447 0 526 2 558 15 47 20
79 50 103 97 17 33 19 61 19 273 0 264 -5 288 -72 338 -63 46 -73 47 -614 47
l-514 0 0 1058 0 1057 -23 39 c-12 22 -39 53 -60 70 l-39 31 -246 3 c-244 3
-248 3 -292 -21z"/>
<path d="M18993 9240 c-714 -48 -1317 -320 -1799 -812 -430 -437 -670 -947
-751 -1589 -23 -187 -23 -615 1 -794 84 -637 323 -1140 754 -1587 385 -399
847 -653 1382 -761 456 -93 998 -82 1425 28 656 169 1210 558 1567 1101 105
159 128 208 128 272 0 67 -29 132 -74 166 -17 14 -112 62 -211 107 -161 74
-186 83 -240 83 -96 1 -134 -26 -230 -165 -232 -336 -473 -562 -740 -693 -432
-213 -1087 -264 -1622 -127 -648 167 -1116 632 -1302 1296 -49 178 -74 328
-96 587 l-6 68 2343 2 2343 3 40 22 c112 60 131 135 104 409 -61 637 -298
1153 -724 1579 -497 497 -1085 756 -1830 805 -175 11 -291 11 -462 0z m577
-775 c309 -48 587 -152 840 -316 355 -229 596 -526 715 -878 l34 -101 -1925 0
c-1058 0 -1924 2 -1924 4 0 11 73 173 123 272 106 211 281 446 428 574 315
274 661 416 1129 460 133 12 455 4 580 -15z"/>
<path d="M24920 9244 c-660 -45 -1170 -234 -1625 -601 -121 -98 -347 -327
-437 -443 -361 -467 -545 -1006 -565 -1655 -16 -505 76 -969 270 -1369 144
-297 290 -500 537 -747 307 -307 617 -505 1003 -638 630 -217 1429 -209 2045
20 573 213 1022 578 1338 1086 69 111 84 148 84 208 0 51 -42 138 -78 164 -15
10 -108 56 -207 102 -160 74 -187 83 -240 83 -84 1 -136 -30 -194 -114 -185
-269 -394 -497 -571 -622 -222 -157 -487 -254 -835 -304 -166 -24 -531 -24
-708 0 -678 93 -1171 431 -1451 997 -129 260 -202 555 -231 926 l-6 83 2343 2
2343 3 45 25 c24 14 58 45 75 68 l30 44 -1 141 c-3 360 -99 753 -265 1086
-126 254 -271 454 -476 658 -450 446 -993 703 -1643 777 -134 16 -474 27 -580
20z m515 -779 c361 -55 676 -185 964 -400 234 -174 394 -361 514 -600 44 -89
107 -253 107 -281 0 -12 -268 -14 -1920 -14 -1056 0 -1920 2 -1920 5 0 2 21
53 46 112 254 599 680 983 1252 1127 118 30 256 54 382 66 130 12 453 4 575
-15z"/>
<path d="M29329 9215 c-337 -53 -598 -185 -839 -425 -175 -175 -286 -347 -354
-552 -118 -358 -70 -838 115 -1150 127 -215 307 -370 614 -529 172 -90 303
-145 661 -279 650 -244 789 -309 905 -418 100 -94 162 -176 210 -277 57 -123
73 -212 66 -374 -7 -162 -30 -261 -88 -381 -58 -119 -178 -238 -299 -297 -175
-86 -376 -125 -650 -125 -423 0 -674 92 -939 346 -81 78 -174 193 -245 302
-76 119 -128 149 -241 142 -59 -4 -73 -10 -236 -108 -154 -93 -177 -110 -204
-154 -26 -43 -30 -59 -30 -120 1 -81 6 -93 101 -236 354 -532 846 -844 1459
-925 157 -21 469 -24 605 -6 442 59 817 239 1113 535 204 205 333 447 399 750
31 139 33 521 5 661 -81 399 -299 726 -627 943 -102 68 -397 219 -569 291
-113 47 -344 134 -681 257 -179 65 -411 182 -495 249 -120 96 -195 207 -226
335 -19 76 -16 268 5 354 52 219 195 356 431 416 127 32 292 43 447 30 308
-26 540 -113 754 -282 107 -85 136 -98 211 -98 83 1 120 22 270 154 155 136
177 169 177 266 0 88 -25 133 -118 212 -317 271 -695 439 -1104 492 -151 20
-479 20 -603 1z"/>
</g>
</svg>
